<?xml version="1.0" standalone="no"?>
<!DOCTYPE svg PUBLIC "-//W3C//DTD SVG 20010904//EN"
 "http://www.w3.org/TR/2001/REC-SVG-20010904/DTD/svg10.dtd">
<svg version="1.0" xmlns="http://www.w3.org/2000/svg"
 width="910.000000pt" height="607.000000pt" viewBox="0 0 910.000000 607.000000"
 preserveAspectRatio="xMidYMid meet">

<g transform="translate(0.000000,607.000000) scale(0.100000,-0.100000)"
fill="#000000" stroke="none">
<path d="M753 4295 c0 -22 2 -30 4 -17 2 12 2 30 0 40 -3 9 -5 -1 -4 -23z"/>
<path d="M833 3875 c-67 -13 -178 -53 -170 -61 2 -3 20 3 40 11 54 22 79 19
39 -5 -33 -20 -36 -45 -4 -33 15 6 15 4 -2 -22 -13 -19 -14 -26 -5 -23 8 4 22
9 32 13 11 5 -16 -29 -60 -75 -43 -45 -79 -86 -79 -91 -1 -5 -2 -14 -3 -20 0
-5 -5 -7 -11 -4 -19 12 -128 -167 -118 -196 2 -6 19 21 37 60 18 39 39 71 46
71 7 0 28 24 46 53 42 67 77 105 114 124 27 14 25 10 -17 -35 -27 -28 -48 -54
-48 -57 0 -10 24 8 43 32 10 13 25 23 32 23 8 0 31 10 52 21 l38 22 -39 -36
c-21 -20 -35 -40 -32 -46 4 -5 1 -13 -5 -17 -8 -4 -9 -3 -5 4 11 18 -10 14
-25 -5 -10 -11 -10 -14 -1 -9 6 4 12 3 12 -1 0 -5 -6 -15 -12 -22 -10 -11 -10
-13 0 -7 21 12 13 -3 -29 -57 -23 -29 -57 -83 -75 -122 -19 -38 -34 -65 -34
-59 0 24 25 82 57 132 19 28 32 52 30 52 -3 0 -21 -20 -42 -45 -60 -73 -121
-323 -88 -356 13 -13 14 -8 15 66 0 29 2 35 8 20 l7 -20 6 20 c3 11 9 37 13
57 3 21 10 35 15 32 5 -3 9 3 9 12 0 10 18 48 40 84 51 85 128 162 90 89 -16
-29 2 -23 33 12 37 43 34 29 -8 -31 -39 -56 -41 -62 -20 -54 8 3 -12 -38 -45
-92 -33 -55 -65 -116 -71 -136 -5 -21 -16 -38 -23 -38 -7 0 -19 -20 -26 -45
-10 -37 -10 -50 3 -82 18 -45 30 -50 56 -24 10 10 22 17 25 14 3 -3 12 0 21 7
31 25 14 -5 -20 -36 -19 -17 -35 -36 -35 -41 0 -14 144 -163 158 -163 17 0 15
7 -9 46 -22 36 -20 40 13 23 31 -17 31 -5 1 28 -15 17 -36 51 -45 77 -23 61
-13 71 67 73 34 0 77 8 97 16 31 13 37 13 42 1 6 -15 53 -19 74 -5 11 7 10 9
-3 15 -9 3 -14 10 -11 15 3 4 -11 7 -31 5 -20 -1 -33 0 -28 4 6 4 15 16 21 26
16 31 28 29 68 -10 37 -36 38 -36 109 -32 84 4 128 23 138 58 3 14 12 43 18
65 19 66 32 215 20 236 -11 22 9 27 29 7 14 -14 16 1 3 21 -7 11 -4 18 11 25
36 18 31 31 -22 58 -37 19 -46 28 -33 31 14 4 14 5 -4 6 -12 0 -25 6 -29 12
-4 8 -9 7 -16 -2 -8 -11 -9 -11 -5 1 3 10 16 15 41 14 l38 -1 -34 30 c-28 26
-40 30 -77 28 -41 -2 -43 -1 -30 15 13 16 11 17 -19 12 -36 -5 -39 -2 -15 24
15 17 15 18 -6 18 -18 0 -21 4 -16 20 4 11 2 20 -4 20 -6 0 -10 5 -8 12 1 7
-11 15 -28 19 -28 6 -28 7 -5 8 36 2 5 21 -35 21 -16 0 -37 5 -45 11 -11 8 0
9 40 5 53 -6 54 -5 25 8 -16 8 -23 15 -15 15 30 2 -13 21 -47 21 -46 0 -41 20
5 21 32 0 34 1 14 9 -40 17 -145 19 -219 5z m110 -42 c-7 -2 -19 -2 -25 0 -7
3 -2 5 12 5 14 0 19 -2 13 -5z m277 -253 c0 -5 -5 -10 -11 -10 -5 0 -7 5 -4
10 3 6 8 10 11 10 2 0 4 -4 4 -10z m-75 -124 c63 16 175 -62 175 -121 0 -17
-7 -41 -16 -54 -16 -22 -16 -23 5 -12 19 10 21 9 21 -13 0 -46 -28 -63 -125
-74 -62 -7 -94 -7 -102 0 -9 7 -13 7 -13 0 0 -17 -43 -38 -48 -23 -2 6 -25 11
-53 11 -31 0 -48 4 -44 10 3 5 -5 15 -19 22 -27 12 -37 42 -11 32 10 -4 15 0
15 12 0 11 5 26 11 34 9 12 10 12 5 -3 -9 -29 4 -40 25 -21 11 10 19 30 19 51
0 27 9 42 47 78 26 25 50 45 54 45 4 0 11 10 15 23 4 12 9 17 11 10 3 -8 14
-11 28 -7z m-555 -187 c0 -11 -4 -18 -10 -14 -5 3 -7 12 -3 20 7 21 13 19 13
-6z m99 -111 c-33 -65 -89 -142 -89 -123 0 9 5 26 12 38 15 30 87 127 94 127
2 0 -5 -19 -17 -42z m193 10 c-8 -8 -9 -4 -5 13 4 13 8 18 11 10 2 -7 -1 -18
-6 -23z m392 -4 c11 -4 16 -19 16 -45 0 -52 -27 -69 -115 -71 -63 -2 -69 0
-92 26 -24 28 -26 47 -6 53 6 2 14 -5 18 -16 3 -12 17 -24 31 -27 13 -3 24
-10 24 -15 0 -5 17 -9 38 -9 24 0 32 3 24 9 -8 4 -12 12 -11 17 2 5 -10 11
-27 15 -26 5 -25 6 19 13 35 5 47 12 47 25 0 28 9 34 34 25z m-607 -140 c-20
-19 -37 -30 -37 -24 0 15 61 72 69 65 3 -3 -11 -22 -32 -41z m263 36 c0 -5 -5
-10 -11 -10 -5 0 -7 5 -4 10 3 6 8 10 11 10 2 0 4 -4 4 -10z"/>
<path d="M1188 3286 c-8 -8 -39 -27 -69 -42 -43 -23 -50 -29 -32 -32 24 -4 92
28 112 52 8 9 24 16 38 16 14 0 21 4 18 10 -9 15 -51 12 -67 -4z"/>
<path d="M1133 3203 c-7 -2 -13 -9 -13 -15 0 -7 4 -7 13 0 6 5 21 12 32 15
l20 5 -20 0 c-11 0 -26 -2 -32 -5z"/>
<path d="M1141 3843 c44 -57 58 -71 64 -65 4 4 6 3 5 -3 -5 -25 2 -35 28 -36
25 -1 25 -1 4 -7 l-23 -7 21 -17 c11 -10 29 -18 40 -18 11 0 20 -7 20 -15 0
-8 19 -24 43 -36 23 -12 45 -27 49 -33 5 -8 8 -7 8 2 0 20 -49 92 -68 99 -19
8 -34 19 -63 48 -18 17 -18 20 -3 25 14 5 13 8 -7 22 -24 15 -117 58 -126 58
-3 0 1 -8 8 -17z"/>
<path d="M4618 3823 c6 -2 18 -2 25 0 6 3 1 5 -13 5 -14 0 -19 -2 -12 -5z"/>
<path d="M4735 3804 c-22 -8 -47 -17 -55 -21 -8 -3 -28 -7 -44 -8 l-28 -3 28
19 c39 25 9 25 -41 -1 -22 -11 -47 -17 -57 -14 -10 3 -18 0 -18 -7 0 -8 -5 -8
-17 2 -10 9 -14 9 -10 2 5 -8 -3 -18 -22 -27 -16 -9 -31 -21 -33 -27 -2 -6
-22 -12 -44 -13 -26 -1 -56 -13 -88 -34 -26 -18 -44 -28 -41 -22 3 5 1 10 -5
10 -7 0 -14 -9 -17 -20 -3 -11 -10 -20 -16 -20 -6 0 -8 -3 -5 -6 4 -3 16 -1
27 6 12 6 21 7 21 2 0 -11 -49 -34 -58 -28 -4 2 -18 -2 -32 -10 -14 -7 -21
-13 -17 -14 5 0 17 5 28 10 15 8 19 7 19 -4 0 -9 -9 -20 -19 -26 -11 -5 -22
-19 -26 -29 -3 -11 -11 -18 -18 -15 -7 2 -25 -7 -41 -21 -16 -14 -34 -25 -40
-26 -6 0 -2 -4 9 -8 19 -8 19 -8 -2 -15 -12 -4 -25 -15 -28 -25 -3 -10 -17
-29 -32 -42 -21 -19 -25 -20 -20 -6 4 11 3 16 -4 12 -6 -4 -8 -13 -5 -20 2 -7
-2 -30 -9 -51 -21 -57 -18 -186 5 -282 11 -46 20 -93 20 -105 0 -12 9 -35 20
-52 11 -16 20 -46 20 -65 1 -19 7 -48 15 -65 14 -29 14 -17 -1 35 -3 11 -1 20
5 20 5 0 11 10 13 23 3 21 4 21 22 -6 17 -25 18 -33 7 -62 -7 -19 -11 -57 -10
-84 2 -42 5 -49 18 -42 9 5 22 6 29 4 6 -3 12 3 12 12 0 9 5 13 10 10 6 -4 7
-12 3 -18 -4 -7 0 -6 10 2 24 19 21 50 -13 125 l-29 66 42 2 42 1 -38 4 c-21
3 -44 0 -51 -6 -9 -8 -19 -4 -36 14 l-23 25 31 61 c40 76 44 139 10 154 -27
12 -38 38 -12 28 15 -6 14 -3 -4 17 -18 20 -22 35 -22 95 0 65 3 74 29 104 23
26 40 34 75 38 42 5 49 3 83 -32 21 -20 55 -44 76 -53 20 -9 37 -20 37 -24 0
-15 42 -50 78 -65 23 -10 31 -17 22 -20 -43 -13 -43 -13 -30 -28 7 -8 20 -15
29 -15 14 0 14 2 1 10 -13 9 -13 11 0 20 8 5 20 10 26 10 20 0 63 -47 70 -77
4 -15 11 -34 17 -41 7 -9 5 -11 -9 -6 -14 5 -12 0 9 -20 15 -15 27 -31 27 -37
0 -20 -44 -69 -62 -69 -11 0 -18 -7 -18 -20 0 -18 -14 -24 -47 -19 -3 0 -10
-7 -15 -16 -16 -28 10 -47 52 -40 29 5 39 3 44 -10 4 -11 2 -14 -7 -9 -9 5 -9
4 -1 -5 7 -8 8 -27 2 -59 -27 -145 -7 -176 68 -106 21 20 52 43 70 50 17 7 36
20 44 28 7 9 18 16 24 16 8 0 8 -2 -1 -8 -13 -8 5 -94 24 -113 12 -12 6 -39
-11 -51 -7 -5 -3 -8 8 -8 13 0 16 -4 11 -17 -4 -10 -10 -31 -13 -47 -4 -23 -2
-28 11 -23 9 3 18 0 21 -9 7 -18 -1 -133 -19 -289 -15 -126 -20 -278 -19 -585
0 -205 16 -330 65 -517 16 -62 29 -118 29 -125 0 -7 -24 -24 -52 -38 -60 -29
-73 -50 -31 -50 28 0 53 -15 53 -32 0 -11 -133 -10 -210 3 -36 6 -78 13 -95
15 -57 8 -124 5 -146 -6 -12 -7 -34 -10 -50 -8 -17 3 -34 -1 -40 -9 -13 -15
-59 -18 -59 -3 0 6 13 19 30 28 16 9 30 23 30 31 0 22 -96 9 -123 -18 -20 -18
-34 -21 -98 -20 -53 1 -65 3 -44 9 l30 7 -37 7 c-20 4 -44 6 -55 3 -16 -3 -15
-5 7 -15 45 -19 -6 -13 -67 8 -32 11 -65 20 -75 20 -23 0 -24 20 0 21 9 0 -7
9 -37 21 -46 18 -59 19 -93 9 -22 -7 -79 -19 -128 -26 -118 -20 -144 -30 -137
-55 4 -14 -6 -32 -30 -58 -19 -20 -38 -37 -42 -37 -13 0 -49 -41 -56 -65 -4
-14 -15 -30 -24 -36 -25 -19 -19 -57 12 -77 15 -9 34 -17 43 -17 8 0 13 -4 10
-8 -2 -4 11 -12 30 -18 19 -6 37 -7 40 -3 7 13 44 11 44 -1 0 -11 85 -5 121 8
16 6 9 11 -36 26 -31 10 -55 20 -52 22 12 12 148 57 197 66 58 10 215 -6 226
-23 3 -5 -20 -9 -50 -9 -58 0 -74 -14 -34 -29 22 -8 22 -8 -7 -24 -17 -9 -25
-16 -20 -17 6 0 3 -5 -5 -11 -12 -9 -12 -10 3 -5 10 3 33 6 50 6 25 0 29 3 17
11 -12 8 -9 9 11 5 15 -3 95 7 178 22 82 16 148 26 146 22 -3 -4 -19 -10 -37
-13 -99 -18 -651 -138 -661 -144 -4 -2 -5 -9 -2 -14 4 -5 5 -9 3 -9 -2 0 -68
-13 -148 -30 -170 -35 -164 -34 -156 -15 3 9 0 15 -8 15 -15 0 -64 149 -356
1066 -65 204 -93 264 -121 264 -5 0 1 -14 13 -31 16 -23 19 -33 11 -36 -20 -7
-16 -25 13 -58 18 -21 24 -37 20 -56 -3 -14 2 -48 10 -74 16 -56 18 -113 4
-149 -6 -17 -6 -26 1 -26 5 0 19 -16 30 -35 12 -19 27 -35 35 -35 8 0 14 -2
14 -4 0 -2 18 -71 41 -153 22 -81 49 -179 59 -218 18 -72 60 -196 84 -250 8
-16 24 -59 37 -95 12 -36 28 -72 36 -81 7 -8 13 -19 13 -24 0 -5 7 -17 17 -27
27 -30 -2 -22 -137 38 -69 31 -150 66 -180 79 -30 12 -125 53 -210 90 -194 85
-277 118 -265 106 6 -5 33 -18 60 -29 28 -11 75 -31 105 -45 30 -14 152 -68
270 -120 118 -52 244 -109 280 -125 126 -59 172 -60 385 -11 22 5 78 11 124
14 46 3 119 14 162 25 42 11 91 20 108 20 17 0 31 4 31 8 0 5 13 9 29 10 16 0
46 5 67 11 80 21 190 41 227 41 20 0 37 5 37 11 0 6 9 8 20 4 13 -4 20 -2 20
7 0 8 3 9 8 3 4 -5 16 -12 27 -14 20 -3 20 -3 0 20 -11 13 -26 29 -34 35 -17
13 -8 20 42 29 40 8 41 7 28 -47 -5 -21 -5 -38 -1 -38 8 0 109 -76 360 -270
63 -49 147 -114 187 -144 l72 -56 1196 0 c949 0 1195 3 1195 13 0 88 -102 223
-237 315 -66 45 -191 103 -261 122 -47 12 -47 13 -15 105 30 87 80 328 89 436
7 69 -16 169 -37 169 -6 0 -7 -5 -4 -10 7 -11 -19 -42 -28 -34 -3 3 -14 1 -24
-6 -16 -10 -16 -11 0 -6 9 3 17 2 17 -3 0 -5 -12 -12 -26 -15 -17 -5 -24 -12
-20 -21 3 -9 -5 -17 -22 -24 -21 -7 -23 -10 -7 -10 18 -1 17 -3 -5 -18 -14 -9
-27 -18 -29 -19 -2 -2 2 -10 9 -19 9 -11 9 -15 1 -15 -7 0 -21 -9 -33 -20 -12
-10 -26 -17 -31 -13 -6 3 -7 1 -3 -5 4 -7 -4 -23 -18 -37 -15 -14 -26 -22 -26
-18 0 4 -15 -16 -32 -45 -18 -28 -37 -52 -43 -52 -13 0 -61 -103 -71 -150 -6
-29 -8 -32 -14 -15 -4 12 -3 23 4 27 8 5 7 11 -2 20 -18 18 -15 39 5 31 12 -5
10 0 -6 16 -12 12 -27 19 -33 15 -7 -4 -8 -3 -4 4 4 7 13 12 20 12 16 0 28 38
15 46 -6 3 -5 11 2 20 6 7 8 21 5 31 -4 9 -1 20 5 24 19 11 0 29 -32 29 -29 0
-41 22 -19 35 8 5 8 11 1 19 -6 7 -7 17 -3 21 4 5 2 5 -5 1 -18 -10 -25 11
-11 34 11 18 10 23 -6 36 -26 19 -15 27 20 14 l29 -11 -30 25 c-16 14 -34 26
-40 26 -5 0 -2 5 8 11 9 5 17 21 17 35 0 14 -4 23 -9 20 -5 -3 -11 1 -15 9 -3
8 -1 17 4 20 4 3 10 0 12 -7 3 -7 11 2 20 19 13 27 14 33 2 37 -8 3 -14 -1
-14 -9 0 -8 -5 -15 -11 -15 -6 0 -9 9 -6 20 7 27 -11 36 -28 14 -11 -16 -12
-15 -10 10 3 22 0 26 -13 22 -15 -5 -15 -4 1 8 17 14 24 32 8 21 -5 -3 -12 3
-14 12 -4 17 -5 17 -6 1 0 -10 -5 -18 -11 -18 -5 0 -10 -7 -10 -16 0 -8 -4
-13 -9 -10 -5 3 -7 16 -3 28 4 17 2 20 -11 15 -12 -4 -17 -1 -17 9 0 10 -6 14
-15 10 -8 -3 -15 0 -15 6 0 7 -5 6 -15 -2 -12 -10 -15 -9 -15 5 0 14 -3 15
-15 5 -10 -9 -15 -9 -15 -1 0 6 -20 12 -47 12 -48 2 -47 2 12 9 35 3 98 1 149
-7 101 -15 124 -11 44 7 -44 10 -365 32 -391 27 -5 -1 -14 16 -22 38 -49 150
-75 237 -84 285 -45 244 -73 348 -116 435 -56 111 -88 165 -97 165 -4 0 -9
-21 -11 -47 l-4 -48 0 52 c1 41 -5 59 -28 88 -52 69 -197 205 -251 236 -53 30
-73 56 -34 44 22 -7 23 -1 21 65 -3 59 -22 143 -43 183 -11 22 -17 41 -14 44
3 3 12 -11 20 -31 8 -20 17 -36 20 -36 6 0 -15 57 -49 134 l-17 40 35 -27 c20
-15 38 -27 41 -27 13 0 -18 57 -50 93 -52 57 -82 139 -55 149 6 2 4 28 -3 66
-8 34 -11 62 -9 62 8 0 -40 74 -72 111 -17 19 -62 81 -98 136 -73 110 -138
175 -205 204 -51 22 -73 23 -127 3z m-90 -54 c-3 -5 -11 -10 -17 -10 -6 0 -19
-7 -29 -16 -9 -8 -29 -14 -43 -12 -52 6 7 43 77 47 10 1 15 -3 12 -9z m-85
-54 c0 -2 -7 -7 -16 -10 -8 -3 -12 -2 -9 4 6 10 25 14 25 6z m-111 -30 c-2 -2
-15 -9 -29 -15 -24 -11 -24 -11 -6 3 16 13 49 24 35 12z m428 -562 c-6 -6 -47
9 -47 17 0 5 11 3 25 -3 14 -6 24 -13 22 -14z m23 -48 c0 -23 -29 -71 -30 -49
0 6 5 15 11 19 6 4 9 19 5 36 -3 18 -2 27 4 23 6 -3 10 -16 10 -29z m-30 3 c0
-5 -4 -9 -10 -9 -5 0 -10 7 -10 16 0 8 5 12 10 9 6 -3 10 -10 10 -16z m-102
-68 c-2 -9 4 -16 14 -16 10 0 18 -3 18 -7 0 -12 -3 -12 -27 -6 -16 4 -23 14
-23 30 0 13 -6 30 -12 38 -7 8 -3 6 10 -4 12 -11 21 -26 20 -35z m141 7 c-5
-13 -21 -28 -34 -34 -20 -10 -28 -9 -45 6 -27 23 -25 28 8 27 15 0 21 -2 15
-4 -15 -5 -17 -23 -4 -23 6 0 23 11 38 25 35 30 35 30 22 3z m-75 -89 c-8 -14
-34 -11 -34 4 0 8 3 17 7 20 9 9 34 -13 27 -24z m-654 -239 c0 -5 -5 -10 -11
-10 -5 0 -7 5 -4 10 3 6 8 10 11 10 2 0 4 -4 4 -10z m1417 -312 c-3 -8 -6 -5
-6 6 -1 11 2 17 5 13 3 -3 4 -12 1 -19z m-464 -3 c-3 -9 -8 -14 -10 -11 -3 3
-2 9 2 15 9 16 15 13 8 -4z m151 -11 c3 -8 2 -12 -4 -9 -6 3 -10 10 -10 16 0
14 7 11 14 -7z m-167 -36 c-3 -8 -6 -5 -6 6 -1 11 2 17 5 13 3 -3 4 -12 1 -19z
m33 -63 c-7 -20 -10 -52 -8 -70 2 -18 0 -31 -4 -29 -4 3 -8 19 -8 36 0 34 21
111 28 104 2 -3 -1 -21 -8 -41z m47 13 c-3 -8 -6 -5 -6 6 -1 11 2 17 5 13 3
-3 4 -12 1 -19z m-353 -70 c-20 -38 -31 -82 -40 -158 l-13 -105 6 95 c4 78 10
107 35 163 17 37 33 65 35 63 2 -2 -8 -28 -23 -58z m152 11 c-8 -19 -15 -29
-15 -22 -1 18 19 67 25 61 3 -3 -2 -21 -10 -39z m-85 -16 c-12 -20 -14 -14 -5
12 4 9 9 14 11 11 3 -2 0 -13 -6 -23z m30 -49 c-11 -38 -20 -63 -20 -55 -1 20
31 133 36 128 2 -3 -5 -35 -16 -73z m289 32 c0 -26 -6 -18 -14 19 -5 22 -4 26
4 15 5 -8 10 -24 10 -34z m7 -58 c-3 -7 -5 -2 -5 12 0 14 2 19 5 13 2 -7 2
-19 0 -25z m-356 -9 c-5 -13 -10 -19 -10 -12 -1 15 10 45 15 40 3 -2 0 -15 -5
-28z m90 -15 c-5 -21 -9 -30 -10 -19 -1 24 10 67 15 62 3 -2 0 -22 -5 -43z
m186 14 c-3 -7 -5 -2 -5 12 0 14 2 19 5 13 2 -7 2 -19 0 -25z m90 -45 c-3 -10
-5 -4 -5 12 0 17 2 24 5 18 2 -7 2 -21 0 -30z m-150 -10 c-3 -10 -5 -4 -5 12
0 17 2 24 5 18 2 -7 2 -21 0 -30z m70 5 c-3 -7 -5 -2 -5 12 0 14 2 19 5 13 2
-7 2 -19 0 -25z m-313 -27 c-9 -23 -18 -40 -20 -38 -2 2 4 22 13 45 9 23 18
40 20 38 2 -2 -4 -22 -13 -45z m55 -35 c-7 -31 -14 -54 -16 -52 -3 3 1 30 8
60 7 31 14 54 16 52 3 -3 -1 -30 -8 -60z m48 2 c-2 -13 -4 -5 -4 17 -1 22 1
32 4 23 2 -10 2 -28 0 -40z m220 -20 c-2 -13 -4 -3 -4 22 0 25 2 35 4 23 2
-13 2 -33 0 -45z m-60 -10 c-2 -13 -4 -5 -4 17 -1 22 1 32 4 23 2 -10 2 -28 0
-40z m140 -5 c-3 -10 -5 -4 -5 12 0 17 2 24 5 18 2 -7 2 -21 0 -30z m-435 -40
c-5 -76 -10 -83 -11 -15 0 34 2 62 7 62 4 0 6 -21 4 -47z m125 -30 c-3 -10 -5
-2 -5 17 0 19 2 27 5 18 2 -10 2 -26 0 -35z m-67 0 c-11 -17 -11 -17 -6 0 3
10 6 24 7 30 0 9 2 9 5 0 3 -7 0 -20 -6 -30z m-20 -60 c-11 -17 -11 -17 -6 0
3 10 6 24 7 30 0 9 2 9 5 0 3 -7 0 -20 -6 -30z m75 -13 c-9 -41 -17 -33 -9 9
4 17 9 30 11 27 3 -2 2 -19 -2 -36z m62 -2 c-3 -8 -6 -5 -6 6 -1 11 2 17 5 13
3 -3 4 -12 1 -19z m270 -25 c-3 -10 -5 -2 -5 17 0 19 2 27 5 18 2 -10 2 -26 0
-35z m-426 -14 c-5 -13 -10 -19 -10 -12 -1 15 10 45 15 40 3 -2 0 -15 -5 -28z
m356 -11 c-3 -7 -5 -2 -5 12 0 14 2 19 5 13 2 -7 2 -19 0 -25z m-280 -10 c-3
-8 -6 -5 -6 6 -1 11 2 17 5 13 3 -3 4 -12 1 -19z m70 -10 c-3 -7 -5 -2 -5 12
0 14 2 19 5 13 2 -7 2 -19 0 -25z m-86 -35 c-12 -20 -14 -14 -5 12 4 9 9 14
11 11 3 -2 0 -13 -6 -23z m246 -20 c-3 -10 -5 -4 -5 12 0 17 2 24 5 18 2 -7 2
-21 0 -30z m-340 -35 c-2 -13 -4 -3 -4 22 0 25 2 35 4 23 2 -13 2 -33 0 -45z
m170 40 c-3 -8 -6 -5 -6 6 -1 11 2 17 5 13 3 -3 4 -12 1 -19z m230 0 c-3 -8
-6 -5 -6 6 -1 11 2 17 5 13 3 -3 4 -12 1 -19z m-370 -60 c-2 -13 -4 -3 -4 22
0 25 2 35 4 23 2 -13 2 -33 0 -45z m440 -110 c-3 -7 -5 -2 -5 12 0 14 2 19 5
13 2 -7 2 -19 0 -25z m-480 -85 c-2 -21 -4 -6 -4 32 0 39 2 55 4 38 2 -18 2
-50 0 -70z m410 30 c-3 -10 -5 -2 -5 17 0 19 2 27 5 18 2 -10 2 -26 0 -35z
m80 -70 c-3 -10 -5 -2 -5 17 0 19 2 27 5 18 2 -10 2 -26 0 -35z m10 -115 c-3
-8 -6 -5 -6 6 -1 11 2 17 5 13 3 -3 4 -12 1 -19z m450 0 c-3 -8 -6 -5 -6 6 -1
11 2 17 5 13 3 -3 4 -12 1 -19z m693 -273 c0 -8 -4 -15 -10 -15 -5 0 -10 7
-10 15 0 8 5 15 10 15 6 0 10 -7 10 -15z m-1330 -114 c-8 -5 -26 -11 -40 -15
-21 -5 -20 -3 5 9 32 15 60 20 35 6z m1370 -36 c0 -8 -4 -15 -10 -15 -5 0 -10
7 -10 15 0 8 5 15 10 15 6 0 10 -7 10 -15z m-2720 -10 c-15 -9 -55 -15 -100
-15 -95 -1 -155 -12 -156 -28 -1 -6 -2 -16 -3 -21 -2 -14 -94 -106 -103 -104
-4 2 -13 -16 -19 -40 -14 -46 -31 -74 -23 -36 5 23 5 23 -10 5 -12 -15 -16
-16 -16 -5 0 8 4 19 9 25 4 5 13 24 20 43 13 39 107 155 136 168 11 5 65 10
120 12 55 2 102 5 104 7 2 2 18 4 35 4 l31 -1 -25 -14z m-133 -36 c5 -5 23
-12 39 -14 16 -2 31 -4 34 -4 3 -1 -8 -8 -24 -16 -30 -16 -52 -11 -26 5 13 8
12 10 -2 10 -9 0 -19 -4 -22 -8 -3 -5 -18 -9 -35 -10 l-29 -1 22 24 c25 27 29
28 43 14z m613 -39 c0 -5 10 -9 22 -7 16 1 23 -3 23 -18 0 -18 6 -20 52 -17
41 3 55 0 72 -17 40 -40 23 -71 -39 -71 -42 0 -65 10 -48 21 8 6 -5 9 -37 10
-56 2 -55 2 -108 13 -30 6 -45 3 -75 -15 -35 -21 -36 -21 -19 -2 16 18 16 21
2 33 -13 11 -16 11 -13 -1 2 -9 -10 -16 -37 -20 -22 -3 -32 -7 -22 -8 9 0 17
-5 17 -10 0 -9 -96 -25 -109 -17 -4 3 -54 8 -111 12 -75 4 -108 11 -119 22
-15 14 -14 15 2 9 11 -4 24 -4 30 0 7 4 2 10 -13 14 -16 4 -5 6 30 5 53 -1 55
0 52 23 -4 22 -1 24 34 18 40 -7 61 -26 41 -39 -9 -6 -9 -8 1 -8 19 0 106 41
115 54 5 8 10 7 16 -3 7 -10 10 -11 16 -1 6 10 11 9 21 -5 11 -15 16 -16 29
-5 12 10 15 10 15 0 0 -9 4 -9 13 -3 6 6 27 11 46 11 19 0 37 5 40 10 5 8 27
17 54 21 4 0 7 -3 7 -9z m-585 -40 c3 -5 -2 -10 -13 -10 -11 0 -30 -8 -43 -19
-13 -10 -44 -29 -69 -42 -80 -43 -100 -60 -100 -85 0 -13 -6 -24 -12 -25 -7 0
-4 -4 7 -9 23 -10 5 -13 -20 -4 -13 5 -14 8 -3 15 10 6 10 11 1 20 -28 28 98
149 166 160 58 10 79 10 86 -1z m-85 -80 c-24 -15 -36 -11 -14 4 10 8 21 12
24 10 2 -3 -2 -9 -10 -14z m2869 -65 c45 -22 79 -51 70 -59 -2 -2 -26 0 -54 4
-27 5 -69 9 -92 9 -38 1 -46 5 -78 47 -19 26 -35 50 -35 54 0 12 137 -28 189
-55z m-2029 35 c0 -5 -8 -10 -17 -10 -15 0 -16 2 -3 10 19 12 20 12 20 0z
m-920 -10 c0 -5 -5 -10 -11 -10 -5 0 -7 5 -4 10 3 6 8 10 11 10 2 0 4 -4 4
-10z m873 -7 c-7 -2 -19 -2 -25 0 -7 3 -2 5 12 5 14 0 19 -2 13 -5z m-50 -10
c-7 -2 -21 -2 -30 0 -10 3 -4 5 12 5 17 0 24 -2 18 -5z m-948 -33 c3 -5 1 -10
-4 -10 -6 0 -11 5 -11 10 0 6 2 10 4 10 3 0 8 -4 11 -10z m2312 -36 c-3 -3
-12 -4 -19 -1 -8 3 -5 6 6 6 11 1 17 -2 13 -5z m-61 -15 c-17 -4 -34 -15 -38
-24 -5 -8 -17 -15 -26 -14 -14 0 -13 2 3 9 14 6 16 9 4 9 -8 1 -34 -15 -56
-34 -23 -19 -47 -35 -53 -35 -16 0 -70 -38 -93 -64 -18 -21 -18 -21 -8 0 26
55 140 135 218 153 50 12 88 12 49 0z m-299 -271 c-3 -8 -6 -5 -6 6 -1 11 2
17 5 13 3 -3 4 -12 1 -19z"/>
<path d="M4410 3740 c-8 -5 -10 -10 -5 -10 6 0 17 5 25 10 8 5 11 10 5 10 -5
0 -17 -5 -25 -10z"/>
<path d="M4145 3530 c-3 -5 -1 -10 4 -10 6 0 11 5 11 10 0 6 -2 10 -4 10 -3 0
-8 -4 -11 -10z"/>
<path d="M570 3396 c-5 -15 -10 -37 -9 -49 0 -13 6 -4 14 23 16 49 12 69 -5
26z"/>
<path d="M697 3338 c-15 -17 -26 -35 -25 -39 2 -5 16 7 31 27 36 44 31 54 -6
12z"/>
<path d="M486 3329 c-13 -40 -15 -70 -8 -90 7 -18 10 -11 16 36 6 54 2 85 -8
54z"/>
<path d="M521 3314 c0 -11 3 -14 6 -6 3 7 2 16 -1 19 -3 4 -6 -2 -5 -13z"/>
<path d="M516 3265 c-9 -25 -7 -117 2 -111 5 3 9 19 10 36 0 16 3 38 6 48 8
24 -9 50 -18 27z"/>
<path d="M640 3240 c-12 -23 -19 -47 -17 -53 2 -7 14 10 25 37 27 61 21 73 -8
16z"/>
<path d="M592 3163 c-5 -10 -12 -31 -15 -48 -5 -24 -2 -22 14 13 20 42 21 73
1 35z"/>
<path d="M4275 3123 c-51 -11 -86 -26 -80 -31 4 -4 55 -7 113 -8 59 0 112 -2
117 -5 6 -2 11 0 13 5 6 19 -121 49 -163 39z"/>
<path d="M1001 3054 c0 -11 3 -14 6 -6 3 7 2 16 -1 19 -3 4 -6 -2 -5 -13z"/>
<path d="M4219 3039 c-10 -20 -9 -21 10 -16 12 3 19 2 17 -2 -7 -11 92 -44
110 -37 12 4 15 2 10 -9 -7 -19 1 -19 19 -1 8 7 11 16 8 20 -4 3 3 6 15 6 23
0 38 15 24 24 -5 3 -46 6 -91 7 -60 1 -84 5 -88 15 -7 20 -21 17 -34 -7z"/>
<path d="M1075 3010 c-7 -11 18 -24 35 -18 6 2 1 9 -9 15 -13 8 -22 9 -26 3z"/>
<path d="M921 2986 c-9 -11 -7 -14 12 -18 17 -3 23 0 24 14 2 21 -20 24 -36 4z"/>
<path d="M1321 2935 c-1 -46 -4 -56 -12 -42 -20 34 -31 18 -24 -35 3 -29 7
-72 8 -95 1 -23 5 -37 9 -30 5 7 8 3 8 -11 0 -13 4 -32 10 -42 8 -15 5 -19
-15 -24 -29 -7 -34 -26 -7 -27 10 0 12 -3 4 -6 -6 -2 -9 -10 -5 -16 4 -6 0 -8
-10 -4 -11 4 -17 -2 -22 -24 -4 -16 -12 -29 -18 -29 -7 0 -24 -10 -39 -23 -19
-17 -25 -30 -21 -45 4 -17 -1 -24 -21 -32 -19 -7 -26 -17 -26 -35 0 -29 12
-32 31 -9 12 14 14 14 25 -1 12 -16 14 -15 19 8 10 38 31 53 43 30 13 -23 25
-20 34 9 5 13 6 2 3 -26 -3 -27 -20 -79 -39 -117 -19 -38 -30 -71 -25 -74 5
-4 5 -14 -2 -27 -6 -11 -9 -29 -6 -39 6 -24 -10 -35 -17 -12 -3 10 -3 0 -1
-22 2 -22 2 -34 -1 -27 -8 16 -24 15 -24 -2 0 -7 -7 -19 -15 -26 -9 -8 -15 -9
-15 -2 0 6 5 14 10 17 8 5 7 11 -1 21 -14 17 -33 8 -25 -13 3 -8 0 -21 -8 -29
-17 -17 -40 -19 -30 -3 4 7 1 10 -7 7 -19 -7 -49 10 -49 27 0 8 -4 15 -9 15
-5 0 -31 23 -58 52 -26 29 -61 66 -78 82 -16 16 -29 35 -27 43 2 9 -1 12 -7 8
-6 -3 -11 0 -11 7 0 7 -8 18 -19 25 -22 14 -32 55 -17 75 11 15 56 19 66 6 7
-9 50 1 50 12 0 17 -40 41 -73 42 -22 1 -38 7 -42 16 -5 12 -8 12 -25 -3 -17
-15 -20 -16 -20 -3 0 9 -6 18 -12 21 -18 7 -41 92 -34 123 5 17 3 23 -4 19
-15 -9 -12 15 5 49 20 38 19 66 -2 82 -26 20 -28 18 -29 -28 -1 -24 -4 -71 -8
-106 -5 -48 -2 -79 13 -135 10 -39 28 -126 40 -192 34 -199 71 -416 86 -495 8
-41 16 -96 18 -122 l4 -47 -50 82 c-28 45 -79 138 -115 207 -35 69 -76 143
-91 165 -32 49 -61 110 -61 131 0 9 -6 14 -12 11 -25 -8 -8 -49 83 -199 31
-51 75 -131 98 -178 23 -46 46 -89 50 -95 23 -30 73 -133 88 -183 14 -46 17
-97 18 -262 0 -113 -2 -223 -5 -245 l-5 -39 55 -2 c30 -1 124 -9 209 -18 156
-16 319 -20 271 -7 l-25 7 25 7 c14 4 44 7 68 7 23 0 42 5 42 10 0 6 6 10 13
10 7 0 20 9 30 20 16 19 15 22 -19 77 -60 92 -85 183 -121 433 -15 104 -18
188 -17 495 1 218 7 410 14 468 9 76 9 111 0 150 -19 85 -31 118 -41 112 -5
-4 -9 15 -10 42 0 26 -4 68 -8 93 l-8 45 -2 -60z m6 -217 c-3 -7 -5 -2 -5 12
0 14 2 19 5 13 2 -7 2 -19 0 -25z"/>
<path d="M4246 2976 c3 -9 11 -16 16 -16 13 0 5 23 -10 28 -7 2 -10 -2 -6 -12z"/>
<path d="M4151 2921 c-8 -6 -9 -11 -3 -15 6 -3 14 -1 17 5 9 14 2 20 -14 10z"/>
<path d="M4178 2886 c-26 -19 -23 -23 22 -30 29 -5 38 -10 34 -21 -5 -11 -2
-13 10 -9 19 7 20 23 3 45 -18 23 -49 30 -69 15z"/>
<path d="M982 2883 c-6 -3 -10 -9 -6 -14 3 -5 1 -9 -5 -9 -5 0 -21 -4 -36 -10
-24 -9 -25 -11 -10 -33 19 -30 56 -47 100 -47 51 0 84 20 106 62 l19 38 -47 0
c-27 0 -62 4 -78 8 -17 5 -36 7 -43 5z m86 -39 c-12 -11 -68 -15 -68 -5 0 6
17 11 37 11 20 0 34 -3 31 -6z"/>
<path d="M4255 2731 l-40 -7 34 -5 c39 -7 81 0 81 12 0 10 -13 10 -75 0z"/>
<path d="M2898 2593 c12 -2 32 -2 45 0 12 2 2 4 -23 4 -25 0 -35 -2 -22 -4z"/>
<path d="M2415 2579 c-93 -4 -216 -10 -271 -14 -94 -6 -101 -8 -97 -26 5 -18
12 -19 72 -14 36 3 183 10 326 15 337 13 389 18 374 36 -13 16 -110 16 -404 3z
m368 -6 c-13 -2 -35 -2 -50 0 -16 2 -5 4 22 4 28 0 40 -2 28 -4z m-150 -10
c-7 -2 -19 -2 -25 0 -7 3 -2 5 12 5 14 0 19 -2 13 -5z"/>
<path d="M4314 2542 c-6 -4 -13 -15 -17 -25 -5 -15 -2 -14 23 5 17 12 30 23
30 25 0 6 -25 3 -36 -5z"/>
<path d="M1565 2500 c-3 -5 -1 -10 4 -10 6 0 11 5 11 10 0 6 -2 10 -4 10 -3 0
-8 -4 -11 -10z"/>
<path d="M3435 2473 c-38 -1 -158 -7 -265 -13 -377 -20 -767 -40 -912 -46
-135 -7 -173 -15 -133 -30 32 -13 1539 77 1554 92 4 4 -109 3 -244 -3z"/>
<path d="M4545 2451 c-3 -6 0 -11 7 -11 7 0 1 -10 -14 -23 -26 -22 -65 -87
-52 -87 4 0 17 8 28 17 12 10 9 4 -6 -12 -15 -17 -41 -61 -59 -100 -27 -60
-33 -87 -40 -190 -6 -79 -5 -147 2 -198 8 -56 8 -85 1 -102 -6 -13 -7 -25 -3
-27 9 -3 0 -77 -18 -143 -6 -22 -11 -56 -11 -77 0 -20 -5 -38 -11 -40 -6 -2
-12 -24 -14 -48 -2 -25 -10 -58 -19 -75 -9 -16 -16 -38 -16 -47 0 -10 -6 -17
-12 -15 -8 1 -12 -6 -10 -19 2 -16 -5 -23 -36 -32 -22 -7 -60 -12 -86 -12 -33
0 -52 -6 -66 -20 -18 -18 -24 -34 -17 -43 1 -2 -4 -11 -12 -21 -17 -21 -12
-27 17 -19 18 4 20 8 11 19 -19 24 0 29 32 10 28 -16 32 -17 48 -2 10 9 28 16
40 16 12 0 31 5 42 10 13 7 19 7 19 1 0 -6 -12 -14 -27 -17 -16 -4 -46 -17
-69 -30 -22 -13 -44 -21 -47 -17 -11 10 -8 -6 4 -29 15 -29 -3 -39 -68 -36
-41 1 -58 7 -75 25 -25 27 -49 32 -25 5 22 -24 21 -35 -1 -28 -10 4 -49 8 -86
10 -58 3 -66 1 -60 -13 18 -44 14 -52 -10 -18 -26 36 -58 48 -72 26 -3 -6 -16
-8 -27 -5 -12 3 -27 0 -34 -6 -9 -7 -13 -7 -13 1 0 19 -17 12 -23 -9 -3 -13
-1 -18 6 -14 7 3 3 -2 -8 -10 -28 -23 -40 -15 -40 30 l0 39 52 0 c57 0 89 18
63 36 -8 5 -27 8 -41 6 -21 -2 -25 1 -22 14 3 11 -2 19 -15 23 -11 4 -27 15
-37 26 -19 21 -55 27 -55 9 0 -6 7 -9 15 -5 28 10 15 -15 -16 -32 -17 -9 -47
-29 -66 -44 -20 -16 -43 -28 -52 -28 -14 0 -14 -2 -1 -10 9 -6 11 -13 5 -18
-10 -7 -16 -142 -6 -142 2 0 34 7 70 16 36 8 75 17 87 19 11 3 31 14 44 25 26
23 38 24 77 9 83 -33 273 -60 453 -65 116 -4 223 -13 286 -25 56 -10 137 -21
181 -25 l80 -7 12 90 c13 94 7 201 -13 228 -6 8 -32 18 -57 21 -39 5 -49 3
-67 -16 -11 -12 -23 -38 -27 -58 -7 -36 -7 -35 -36 53 -26 79 -29 103 -29 216
0 111 6 159 46 361 25 128 49 247 54 263 6 17 23 91 40 165 33 151 36 131 -43
233 -25 33 -48 53 -52 48z m25 -88 c0 -32 -3 -43 -9 -34 -20 31 -71 -126 -71
-220 0 -75 -10 -56 -12 24 -1 44 -5 64 -12 59 -6 -3 -3 5 7 18 9 14 21 34 26
45 41 91 47 103 56 133 11 34 15 27 15 -25z m-46 -155 c-4 -18 -10 -55 -14
-83 l-8 -50 -1 44 c-1 40 17 121 26 121 3 0 1 -15 -3 -32z m-88 -89 c-8 -24
-14 -37 -15 -28 -1 19 20 82 25 76 2 -2 -2 -23 -10 -48z m21 -31 c-3 -7 -5 -2
-5 12 0 14 2 19 5 13 2 -7 2 -19 0 -25z m-4 -188 c3 -105 2 -141 -3 -100 -8
71 -13 276 -6 269 3 -3 7 -79 9 -169z m64 98 c-3 -8 -6 -5 -6 6 -1 11 2 17 5
13 3 -3 4 -12 1 -19z m-89 -53 c-2 -49 -5 -60 -11 -43 -8 21 -1 108 8 108 3 0
4 -29 3 -65z m99 -77 c-3 -8 -6 -5 -6 6 -1 11 2 17 5 13 3 -3 4 -12 1 -19z
m-60 -215 c-3 -10 -5 -4 -5 12 0 17 2 24 5 18 2 -7 2 -21 0 -30z m-50 -185
c-2 -18 -4 -6 -4 27 0 33 2 48 4 33 2 -15 2 -42 0 -60z m-40 -60 c-3 -7 -5 -2
-5 12 0 14 2 19 5 13 2 -7 2 -19 0 -25z m-30 -110 c-3 -8 -6 -5 -6 6 -1 11 2
17 5 13 3 -3 4 -12 1 -19z m10 -105 c-3 -10 -5 -4 -5 12 0 17 2 24 5 18 2 -7
2 -21 0 -30z m-62 17 c-3 -5 -11 -10 -16 -10 -6 0 -7 5 -4 10 3 6 11 10 16 10
6 0 7 -4 4 -10z m-65 -40 c0 -12 -39 -19 -46 -8 -3 5 -15 8 -25 5 -11 -3 -19
-1 -19 3 0 5 8 10 18 12 24 5 72 -3 72 -12z m90 -50 c-25 -4 -49 -4 -54 1 -6
5 12 8 45 8 l54 -2 -45 -7z m404 -37 c15 -70 2 -104 -54 -139 l-49 -32 -12 56
c-6 31 -14 62 -16 69 -7 19 64 86 83 79 9 -4 12 -2 8 5 -4 7 1 10 12 7 13 -2
22 -16 28 -45z m-1157 21 c-3 -3 -12 -4 -19 -1 -8 3 -5 6 6 6 11 1 17 -2 13
-5z m-110 -111 c-3 -10 -5 -4 -5 12 0 17 2 24 5 18 2 -7 2 -21 0 -30z"/>
<path d="M4625 1069 c-4 -6 -5 -12 -2 -15 2 -3 7 2 10 11 7 17 1 20 -8 4z"/>
<path d="M4621 978 c-1 -15 4 -30 9 -33 12 -7 12 12 0 40 -8 18 -9 17 -9 -7z"/>
<path d="M1450 2440 c0 -5 5 -10 10 -10 6 0 10 5 10 10 0 6 -4 10 -10 10 -5 0
-10 -4 -10 -10z"/>
<path d="M1040 2406 c0 -9 -7 -16 -17 -16 -15 0 -15 -1 0 -18 10 -10 18 -27
18 -38 1 -11 4 -6 8 11 5 24 12 30 34 31 30 1 51 14 23 14 -9 0 -28 7 -41 16
-23 15 -25 15 -25 0z"/>
<path d="M940 2401 c0 -6 5 -13 10 -16 6 -3 10 1 10 9 0 9 -4 16 -10 16 -5 0
-10 -4 -10 -9z"/>
<path d="M614 2346 c-11 -28 1 -51 27 -54 31 -4 53 20 44 48 -8 24 -62 29 -71
6z"/>
<path d="M1860 2309 c0 -5 5 -7 10 -4 6 3 10 8 10 11 0 2 -4 4 -10 4 -5 0 -10
-5 -10 -11z"/>
<path d="M301 2284 c0 -11 3 -14 6 -6 3 7 2 16 -1 19 -3 4 -6 -2 -5 -13z"/>
<path d="M4666 2213 c-10 -107 -15 -293 -6 -238 4 28 9 84 9 125 1 41 6 92 12
114 7 25 7 42 1 48 -6 6 -12 -11 -16 -49z"/>
<path d="M1854 1926 c-3 -8 13 -67 35 -132 23 -64 41 -123 41 -130 0 -8 -11
-16 -24 -20 -28 -7 -38 -25 -25 -45 7 -11 9 -10 9 4 0 14 5 17 20 12 15 -5 20
-2 21 12 0 10 9 -6 20 -36 10 -30 17 -57 14 -60 -3 -3 -8 5 -12 18 -8 32 -23
7 -23 -41 0 -43 2 -44 34 -23 l23 16 29 -88 c16 -48 30 -93 32 -99 1 -6 -29
-26 -67 -45 -38 -19 -73 -42 -76 -52 -5 -13 -10 -15 -20 -7 -14 11 -25 -14
-25 -58 0 -14 -4 -21 -11 -16 -6 3 -8 17 -5 30 6 24 -7 33 -19 14 -3 -5 -13
-10 -21 -10 -8 0 -13 4 -10 9 9 14 -4 41 -20 41 -16 0 -37 -37 -29 -50 3 -6
12 -10 20 -10 7 0 16 -8 20 -17 6 -17 7 -17 19 0 17 22 29 22 21 -2 -8 -25 3
-48 26 -54 31 -8 23 -27 -9 -21 -19 4 -32 1 -41 -10 -12 -14 -10 -16 12 -16
13 0 30 -7 37 -15 17 -21 104 -21 96 0 -4 12 3 15 34 13 22 -1 43 2 47 5 3 4
-5 7 -19 7 -45 0 -64 47 -25 62 10 4 15 12 12 18 -12 20 -52 10 -79 -20 -15
-17 -30 -28 -35 -26 -12 8 11 106 25 106 6 0 28 11 48 25 21 14 43 27 49 28 7
1 18 10 26 20 7 10 19 16 27 13 18 -7 18 -4 -6 79 -57 196 -69 239 -64 246 2
4 16 -3 31 -17 35 -32 66 -39 111 -25 21 6 75 13 122 15 47 2 97 7 113 11 20
5 27 4 27 -6 0 -18 66 -17 100 1 23 12 24 14 5 21 -19 7 -19 8 1 8 29 1 69 35
60 49 -4 7 -20 12 -37 12 -34 0 -40 20 -6 21 13 1 6 5 -17 10 -22 5 -47 16
-56 24 -9 8 -43 23 -76 34 -32 10 -49 19 -37 20 12 1 42 -5 65 -13 84 -27 275
-76 294 -75 18 0 18 1 -1 10 -11 5 -171 52 -355 104 -184 53 -364 105 -399
115 -75 24 -70 23 -77 6z m94 -62 c20 -3 55 -12 77 -20 l40 -14 -35 4 c-115
16 -143 27 -159 63 -17 36 -13 37 15 4 16 -19 38 -33 62 -37z m-68 -824 c-8
-5 -19 -10 -25 -10 -5 0 -3 5 5 10 8 5 20 10 25 10 6 0 3 -5 -5 -10z"/>
<path d="M4643 1875 c0 -22 2 -30 4 -17 2 12 2 30 0 40 -3 9 -5 -1 -4 -23z"/>
<path d="M4626 1777 c-4 -32 -5 -61 -3 -64 8 -7 20 81 15 103 -2 11 -8 -7 -12
-39z"/>
<path d="M355 1738 c2 -12 10 -45 15 -73 11 -50 25 -75 42 -75 10 0 3 30 -17
72 -7 15 -16 41 -20 58 -4 16 -11 32 -16 36 -6 3 -8 -4 -4 -18z"/>
<path d="M4391 1684 c0 -11 3 -14 6 -6 3 7 2 16 -1 19 -3 4 -6 -2 -5 -13z"/>
<path d="M1880 1659 c0 -5 5 -7 10 -4 6 3 10 8 10 11 0 2 -4 4 -10 4 -5 0 -10
-5 -10 -11z"/>
<path d="M2650 1639 c0 -5 5 -7 10 -4 6 3 10 8 10 11 0 2 -4 4 -10 4 -5 0 -10
-5 -10 -11z"/>
<path d="M2697 1588 c-3 -18 -8 -44 -11 -58 -4 -14 2 -8 14 15 21 43 26 75 11
75 -5 0 -11 -15 -14 -32z"/>
<path d="M1542 1570 c0 -14 2 -19 5 -12 2 6 2 18 0 25 -3 6 -5 1 -5 -13z"/>
<path d="M402 1571 c-10 -6 -10 -10 3 -21 8 -7 15 -10 15 -7 0 3 3 12 6 21 7
17 -3 20 -24 7z"/>
<path d="M436 1487 c-13 -103 -16 -226 -6 -232 6 -3 10 -11 10 -16 0 -5 -11
-2 -24 7 -32 20 -102 23 -144 5 -44 -18 -34 -25 16 -10 65 19 118 -7 144 -71
l10 -25 10 25 c27 69 58 190 57 230 0 46 -34 131 -55 137 -7 3 -14 -17 -18
-50z"/>
<path d="M1872 1500 c0 -14 2 -19 5 -12 2 6 2 18 0 25 -3 6 -5 1 -5 -13z"/>
<path d="M4550 1484 c0 -4 9 -22 21 -40 20 -34 42 -43 54 -24 3 5 0 7 -8 4 -8
-3 -21 9 -32 31 -17 31 -35 46 -35 29z"/>
<path d="M1480 1445 c0 -91 92 -345 125 -345 19 0 19 9 2 29 -22 25 -56 114
-63 162 -3 24 -10 58 -14 74 -5 17 -14 49 -20 73 -13 51 -30 55 -30 7z"/>
<path d="M165 1420 c22 -6 47 -13 55 -16 8 -3 15 -4 15 -2 0 2 14 -7 30 -18
43 -30 140 -77 127 -62 -5 7 -12 24 -14 37 -4 31 -84 60 -183 66 -62 4 -65 3
-30 -5z"/>
<path d="M330 1420 c0 -5 5 -10 10 -10 6 0 10 5 10 10 0 6 -4 10 -10 10 -5 0
-10 -4 -10 -10z"/>
<path d="M360 1410 c0 -4 9 -10 20 -13 11 -3 20 -2 20 3 0 4 -9 10 -20 13 -11
3 -20 2 -20 -3z"/>
<path d="M1803 1375 c-9 -25 2 -27 22 -5 17 18 17 20 1 20 -9 0 -19 -7 -23
-15z"/>
<path d="M2001 1383 c-1 -6 -23 -24 -51 -39 -27 -15 -50 -33 -50 -41 0 -19 8
-16 45 15 17 15 40 32 50 37 10 6 16 17 12 25 -3 9 -6 10 -6 3z"/>
<path d="M1831 1334 c-34 -28 -39 -49 -16 -58 16 -6 22 3 27 39 2 11 12 25 23
32 11 7 15 12 8 13 -6 0 -25 -12 -42 -26z"/>
<path d="M6448 1333 c7 -3 16 -2 19 1 4 3 -2 6 -13 5 -11 0 -14 -3 -6 -6z"/>
<path d="M1882 1280 c0 -19 2 -27 5 -17 2 9 2 25 0 35 -3 9 -5 1 -5 -18z"/>
<path d="M1752 1260 c0 -14 2 -19 5 -12 2 6 2 18 0 25 -3 6 -5 1 -5 -13z"/>
<path d="M1840 1251 c0 -5 -8 -12 -17 -14 -14 -4 -12 -5 5 -6 13 -1 22 5 22
14 0 8 -2 15 -5 15 -3 0 -5 -4 -5 -9z"/>
<path d="M2071 1244 c0 -11 3 -14 6 -6 3 7 2 16 -1 19 -3 4 -6 -2 -5 -13z"/>
<path d="M6501 1204 c0 -11 3 -14 6 -6 3 7 2 16 -1 19 -3 4 -6 -2 -5 -13z"/>
<path d="M342 1183 c-12 -14 -22 -31 -22 -39 0 -8 -5 -14 -10 -14 -12 0 -4
-42 17 -82 11 -23 11 -27 -1 -22 -15 6 -36 46 -36 69 0 20 -36 19 -44 -1 -8
-22 -9 -21 15 -27 14 -4 20 -11 16 -20 -3 -9 3 -23 13 -32 11 -10 17 -22 14
-27 -3 -5 -1 -15 5 -22 7 -8 10 -20 9 -27 -5 -21 33 -23 38 -2 4 14 12 18 32
15 25 -3 27 -1 29 39 l3 43 -30 -34 c-29 -34 -30 -34 -45 -16 -8 11 -13 22
-10 25 3 2 12 -4 20 -15 14 -19 14 -19 16 1 3 46 17 77 31 69 12 -7 6 59 -7
90 -6 14 -5 17 3 12 7 -4 12 -1 12 7 0 7 -10 19 -23 24 -19 9 -27 7 -45 -14z"/>
<path d="M2076 1201 c-4 -7 -5 -15 -2 -18 9 -9 19 4 14 18 -4 11 -6 11 -12 0z"/>
<path d="M503 1139 c-16 -16 -17 -59 -3 -59 14 0 22 23 18 50 -2 17 -5 19 -15
9z"/>
<path d="M3450 1140 c-8 -5 -10 -10 -5 -10 6 0 17 5 25 10 8 5 11 10 5 10 -5
0 -17 -5 -25 -10z"/>
<path d="M681 1124 c0 -11 3 -14 6 -6 3 7 2 16 -1 19 -3 4 -6 -2 -5 -13z"/>
<path d="M160 1108 c0 -9 6 -19 13 -22 8 -3 7 -8 -5 -16 -22 -13 -23 -39 -3
-46 8 -4 15 -12 15 -19 0 -7 7 -18 16 -26 8 -7 13 -21 11 -30 -4 -15 -2 -16
13 -7 14 9 23 7 45 -10 36 -29 54 -28 28 1 -11 12 -27 36 -36 52 -8 17 -24 39
-36 49 -12 11 -21 25 -21 31 0 7 -9 23 -20 36 -15 19 -19 21 -20 7z"/>
<path d="M1986 1102 c-9 -14 9 -31 23 -23 7 5 10 14 7 20 -8 13 -23 14 -30 3z"/>
<path d="M3359 1103 c-13 -3 -16 -21 -15 -109 1 -93 3 -107 21 -120 28 -20 50
3 40 43 -14 56 -13 147 2 171 14 22 13 23 -5 13 -11 -6 -23 -16 -26 -23 -4 -7
-4 -3 -2 10 2 12 3 21 3 21 -1 -1 -9 -3 -18 -6z"/>
<path d="M59 1073 c-13 -16 -12 -17 4 -4 9 7 17 15 17 17 0 8 -8 3 -21 -13z"/>
<path d="M682 1060 c0 -19 2 -27 5 -17 2 9 2 25 0 35 -3 9 -5 1 -5 -18z"/>
<path d="M3283 1025 c0 -22 2 -30 4 -17 2 12 2 30 0 40 -3 9 -5 -1 -4 -23z"/>
<path d="M47 1035 c-4 -8 -10 -15 -14 -14 -19 3 -23 -2 -13 -21 15 -28 27 -25
35 11 7 33 1 50 -8 24z"/>
<path d="M117 1023 c-10 -9 -9 -23 2 -23 5 0 11 7 15 15 5 15 -5 20 -17 8z"/>
<path d="M150 1011 c0 -5 5 -13 10 -16 6 -3 10 -2 10 4 0 5 -4 13 -10 16 -5 3
-10 2 -10 -4z"/>
<path d="M2228 1003 c7 -3 16 -2 19 1 4 3 -2 6 -13 5 -11 0 -14 -3 -6 -6z"/>
<path d="M6526 991 c-4 -7 -5 -15 -2 -18 9 -9 19 4 14 18 -4 11 -6 11 -12 0z"/>
<path d="M170 976 c0 -2 7 -9 15 -16 13 -11 14 -10 9 4 -5 14 -24 23 -24 12z"/>
<path d="M3291 964 c0 -11 3 -14 6 -6 3 7 2 16 -1 19 -3 4 -6 -2 -5 -13z"/>
<path d="M3688 943 c7 -3 16 -2 19 1 4 3 -2 6 -13 5 -11 0 -14 -3 -6 -6z"/>
<path d="M6500 910 c-8 -5 -11 -12 -8 -16 10 -9 38 3 38 16 0 12 -10 13 -30 0z"/>
<path d="M156 884 c18 -14 17 -15 -18 -9 -22 3 -39 1 -43 -5 -4 -6 -17 -15
-29 -20 -17 -7 -12 -9 24 -10 25 0 55 -3 67 -6 30 -8 43 32 16 51 -25 20 -41
19 -17 -1z"/>
<path d="M4038 873 c7 -3 16 -2 19 1 4 3 -2 6 -13 5 -11 0 -14 -3 -6 -6z"/>
<path d="M450 801 c39 -12 107 -21 90 -12 -8 5 -37 11 -65 14 -31 4 -40 3 -25
-2z"/>
<path d="M698 783 c6 -2 18 -2 25 0 6 3 1 5 -13 5 -14 0 -19 -2 -12 -5z"/>
<path d="M455 710 c3 -5 25 -10 48 -9 33 0 38 2 22 9 -28 12 -78 12 -70 0z"/>
<path d="M535 675 c-59 -12 -59 -12 -20 -15 25 -2 32 -4 18 -7 -46 -9 -21 -23
38 -23 46 0 71 6 97 22 36 22 36 22 12 29 -36 10 -77 8 -145 -6z"/>
<path d="M798 663 c6 -2 18 -2 25 0 6 3 1 5 -13 5 -14 0 -19 -2 -12 -5z"/>
<path d="M1372 605 c0 -16 2 -22 5 -12 2 9 2 23 0 30 -3 6 -5 -1 -5 -18z"/>
<path d="M1268 603 c7 -3 16 -2 19 1 4 3 -2 6 -13 5 -11 0 -14 -3 -6 -6z"/>
<path d="M3748 553 c7 -3 16 -2 19 1 4 3 -2 6 -13 5 -11 0 -14 -3 -6 -6z"/>
<path d="M1311 496 c-13 -15 -88 -30 -141 -27 -33 1 -34 1 -16 -14 25 -19 37
-19 95 2 44 15 50 15 80 0 l33 -17 -5 25 c-6 32 6 39 35 24 21 -11 22 -11 9 4
-16 21 -74 22 -90 3z"/>
<path d="M1314 390 c-32 -15 -71 -31 -86 -34 -16 -4 -28 -11 -28 -16 0 -13 40
-13 80 1 25 9 34 9 40 -1 10 -16 33 -3 26 15 -3 8 1 19 9 25 10 8 14 8 18 -2
3 -10 9 -9 22 4 16 15 16 17 -2 26 -15 9 -32 5 -79 -18z"/>
<path d="M3460 410 c-12 -8 -11 -10 8 -10 12 0 22 5 22 10 0 13 -11 13 -30 0z"/>
<path d="M3375 390 c-8 -13 5 -13 25 0 13 8 13 10 -2 10 -9 0 -20 -4 -23 -10z"/>
<path d="M1285 263 c-60 -45 -80 -73 -51 -73 9 0 16 5 16 10 0 6 7 10 16 10 8
0 13 4 9 9 -3 5 11 15 31 21 19 7 38 18 41 26 3 8 9 11 14 8 11 -6 11 -1 3 20
-8 22 -11 21 -79 -31z"/>
<path d="M1352 230 c0 -14 2 -19 5 -12 2 6 2 18 0 25 -3 6 -5 1 -5 -13z"/>
<path d="M3667 233 c-10 -3 -17 -12 -15 -21 4 -23 78 -30 78 -8 0 12 10 16 38
17 20 0 46 4 57 9 21 9 -124 12 -158 3z"/>
<path d="M2967 203 c-13 -3 -17 -12 -15 -31 l3 -27 85 3 c124 4 152 15 56 22
-59 5 -80 10 -88 23 -9 18 -11 18 -41 10z"/>
<path d="M3128 193 c7 -3 16 -2 19 1 4 3 -2 6 -13 5 -11 0 -14 -3 -6 -6z"/>
<path d="M721 151 c-8 -5 -10 -14 -6 -21 4 -7 2 -16 -6 -21 -21 -13 -29 -11
-29 9 0 13 -6 10 -25 -13 -14 -16 -22 -22 -19 -12 8 23 4 22 -62 -14 -49 -26
-63 -29 -106 -24 -44 6 -50 4 -55 -14 -3 -12 -12 -21 -19 -21 -8 0 -14 -4 -14
-10 0 -6 63 -10 170 -10 107 0 170 4 170 10 0 6 -4 10 -10 10 -5 0 -10 11 -10
25 0 14 4 25 8 25 13 0 35 -47 28 -59 -4 -6 0 -11 8 -11 9 0 13 6 10 13 -3 8
2 20 11 27 21 18 19 29 -9 41 -18 8 -24 19 -23 38 1 14 7 29 12 33 15 11 -7
10 -24 -1z"/>
<path d="M1165 30 c-4 -6 -17 -15 -29 -20 l-21 -9 21 0 c22 -1 52 25 41 35 -3
3 -8 0 -12 -6z"/>
<path d="M295 10 c-38 -7 -38 -7 18 -9 32 0 57 3 57 9 0 11 -14 11 -75 0z"/>
</g>
</svg>
